<svg xmlns="http://www.w3.org/2000/svg" viewBox="0 0 24 24" width="24" height="24" fill="none"><path fill="currentColor" fill-rule="evenodd" d="M2.60,20.60 L2.60,10.40 L8.40,13.60 L8.40,10.40 L14.20,13.60 L14.20,6.00 L21.40,6.00 L21.40,20.60ZM17.20,9.00H18.40A0.80,0.80 0 0 1 19.20,9.80V11.00A0.80,0.80 0 0 1 18.40,11.80H17.20A0.80,0.80 0 0 1 16.40,11.00V9.80A0.80,0.80 0 0 1 17.20,9.00Z"/><path fill="currentColor" class="accent" d="M17.40,14.00H18.20A1.00,1.00 0 0 1 19.20,15.00V16.60A1.00,1.00 0 0 1 18.20,17.60H17.40A1.00,1.00 0 0 1 16.40,16.60V15.00A1.00,1.00 0 0 1 17.40,14.00Z"/></svg>