<svg xmlns="http://www.w3.org/2000/svg" viewBox="0 0 24 24" width="24" height="24" fill="none"><path fill="currentColor" fill-rule="evenodd" d="M3.00,12.00a9.00,9.00 0 1 0 18.00,0a9.00,9.00 0 1 0 -18.00,0ZM4.75,12.00a7.25,7.25 0 1 1 14.50,0a7.25,7.25 0 1 1 -14.50,0ZM8.40,12.00a3.60,3.60 0 1 0 7.20,0a3.60,3.60 0 1 0 -7.20,0ZM18.29,17.37 L15.54,14.62 L14.62,15.54 L17.37,18.29ZM6.63,18.29 L9.38,15.54 L8.46,14.62 L5.71,17.37ZM5.71,6.63 L8.46,9.38 L9.38,8.46 L6.63,5.71ZM17.37,5.71 L14.62,8.46 L15.54,9.38 L18.29,6.63Z"/><path fill="currentColor" class="accent" d="M10.20,12.00a1.80,1.80 0 1 0 3.60,0a1.80,1.80 0 1 0 -3.60,0Z"/></svg>