<svg xmlns="http://www.w3.org/2000/svg" viewBox="0 0 240 240" width="240" height="240" fill="none"><path fill="currentColor" fill-rule="evenodd" d="M120.00,14.00 L208.00,63.00 L208.00,177.00 L120.00,226.00 L32.00,177.00 L32.00,63.00ZM120.00,27.20 L197.44,70.32 L197.44,170.64 L120.00,213.76 L42.56,170.64 L42.56,70.32ZM120.00,33.80 L192.16,73.98 L192.16,167.46 L120.00,207.64 L47.84,167.46 L47.84,73.98ZM42.00,186.00 L55.00,178.24 L68.00,171.00 L81.00,164.79 L94.00,160.02 L107.00,157.02 L120.00,156.00 L133.00,157.02 L146.00,160.02 L159.00,164.79 L172.00,171.00 L185.00,178.24 L198.00,186.00 L198.00,208.00 L185.00,200.24 L172.00,193.00 L159.00,186.79 L146.00,182.02 L133.00,179.02 L120.00,178.00 L107.00,179.02 L94.00,182.02 L81.00,186.79 L68.00,193.00 L55.00,200.24 L42.00,208.00ZM55.00,150.00 L65.83,142.24 L76.67,135.00 L87.50,128.79 L98.33,124.02 L109.17,121.02 L120.00,120.00 L130.83,121.02 L141.67,124.02 L152.50,128.79 L163.33,135.00 L174.17,142.24 L185.00,150.00 L185.00,167.00 L174.17,159.24 L163.33,152.00 L152.50,145.79 L141.67,141.02 L130.83,138.02 L120.00,137.00 L109.17,138.02 L98.33,141.02 L87.50,145.79 L76.67,152.00 L65.83,159.24 L55.00,167.00ZM68.00,116.00 L76.67,108.24 L85.33,101.00 L94.00,94.79 L102.67,90.02 L111.33,87.02 L120.00,86.00 L128.67,87.02 L137.33,90.02 L146.00,94.79 L154.67,101.00 L163.33,108.24 L172.00,116.00 L172.00,129.00 L163.33,121.24 L154.67,114.00 L146.00,107.79 L137.33,103.02 L128.67,100.02 L120.00,99.00 L111.33,100.02 L102.67,103.02 L94.00,107.79 L85.33,114.00 L76.67,121.24 L68.00,129.00ZM81.00,86.00 L87.50,78.24 L94.00,71.00 L100.50,64.79 L107.00,60.02 L113.50,57.02 L120.00,56.00 L126.50,57.02 L133.00,60.02 L139.50,64.79 L146.00,71.00 L152.50,78.24 L159.00,86.00 L159.00,95.00 L152.50,87.24 L146.00,80.00 L139.50,73.79 L133.00,69.02 L126.50,66.02 L120.00,65.00 L113.50,66.02 L107.00,69.02 L100.50,73.79 L94.00,80.00 L87.50,87.24 L81.00,95.00Z"/><path fill="currentColor" class="accent" d="M62.00,192.00 L178.00,192.00 L178.00,180.00 L62.00,180.00Z"/></svg>