<svg xmlns="http://www.w3.org/2000/svg" viewBox="0 0 48 48" width="48" height="48" fill="none"><path fill="currentColor" fill-rule="evenodd" d="M6.40,24.00a17.60,17.60 0 1 0 35.20,0a17.60,17.60 0 1 0 -35.20,0ZM17.60,19.20a6.40,6.40 0 1 0 12.80,0a6.40,6.40 0 1 0 -12.80,0ZM21.20,19.20a2.80,2.80 0 1 1 5.60,0a2.80,2.80 0 1 1 -5.60,0ZM23.60,22.80H24.40A1.80,1.80 0 0 1 26.20,24.60V27.00A1.80,1.80 0 0 1 24.40,28.80H23.60A1.80,1.80 0 0 1 21.80,27.00V24.60A1.80,1.80 0 0 1 23.60,22.80ZM21.20,34.00a2.80,2.80 0 1 0 5.60,0a2.80,2.80 0 1 0 -5.60,0Z"/></svg>